<svg width="53" height="56" viewBox="0 0 53 56" fill="none" xmlns="http://www.w3.org/2000/svg">
<path d="M13.2804 9.46289H6.66854C5.46639 9.46289 4.3558 10.1022 3.75472 11.1427L0.450805 16.8531C-0.150269 17.8935 -0.150269 19.1722 0.450805 20.2086L3.75472 25.919C4.3558 26.9594 5.46639 27.5988 6.66854 27.5988H13.2804C14.4825 27.5988 15.5931 26.9594 16.1942 25.919L19.4981 20.2086C20.0992 19.1682 20.0992 17.8895 19.4981 16.8531L16.1942 11.1427C15.5931 10.1022 14.4825 9.46289 13.2804 9.46289Z" fill="#F26639"/>
<path d="M29.776 18.9297H23.1641C21.962 18.9297 20.8514 19.569 20.2503 20.6095L16.9464 26.3199C16.3453 27.3603 16.3453 28.639 16.9464 29.6754L20.2503 35.3858C20.8514 36.4262 21.962 37.0656 23.1641 37.0656H29.776C30.9781 37.0656 32.0887 36.4262 32.6898 35.3858L35.9937 29.6754C36.5948 28.635 36.5948 27.3563 35.9937 26.3199L32.6898 20.6095C32.0887 19.569 30.9781 18.9297 29.776 18.9297Z" fill="#510D6D"/>
<path d="M46.3314 9.46289H39.7196C38.5174 9.46289 37.4068 10.1022 36.8057 11.1427L33.5018 16.8531C32.9008 17.8935 32.9008 19.1722 33.5018 20.2086L36.8057 25.919C37.4068 26.9594 38.5174 27.5988 39.7196 27.5988H46.3314C47.5335 27.5988 48.6441 26.9594 49.2452 25.919L52.5491 20.2086C53.1502 19.1682 53.1502 17.8895 52.5491 16.8531L49.2452 11.1427C48.6441 10.1022 47.5335 9.46289 46.3314 9.46289Z" fill="#0497AF"/>
<path d="M46.3314 28.3975H39.7196C38.5174 28.3975 37.4068 29.0368 36.8057 30.0772L33.5018 35.7876C32.9008 36.8281 32.9008 38.1067 33.5018 39.1432L36.8057 44.8536C37.4068 45.894 38.5174 46.5334 39.7196 46.5334H46.3314C47.5335 46.5334 48.6441 45.894 49.2452 44.8536L52.5491 39.1432C53.1502 38.1028 53.1502 36.8241 52.5491 35.7876L49.2452 30.0772C48.6441 29.0368 47.5335 28.3975 46.3314 28.3975Z" fill="#F26639"/>
<path d="M29.776 37.8643H23.1641C21.962 37.8643 20.8514 38.5036 20.2503 39.544L16.9464 45.2544C16.3453 46.2948 16.3453 47.5735 16.9464 48.61L20.2503 54.3204C20.8514 55.3608 21.962 56.0002 23.1641 56.0002H29.776C30.9781 56.0002 32.0887 55.3608 32.6898 54.3204L35.9937 48.61C36.5948 47.5696 36.5948 46.2909 35.9937 45.2544L32.6898 39.544C32.0887 38.5036 30.9781 37.8643 29.776 37.8643Z" fill="#510D6D"/>
<path d="M13.2804 28.3975H6.66854C5.46639 28.3975 4.3558 29.0368 3.75472 30.0772L0.450805 35.7876C-0.150269 36.8281 -0.150269 38.1067 0.450805 39.1432L3.75472 44.8536C4.3558 45.894 5.46639 46.5334 6.66854 46.5334H13.2804C14.4825 46.5334 15.5931 45.894 16.1942 44.8536L19.4981 39.1432C20.0992 38.1028 20.0992 36.8241 19.4981 35.7876L16.1942 30.0772C15.5931 29.0368 14.4825 28.3975 13.2804 28.3975Z" fill="#0497AF"/>
<path d="M29.776 0H23.1641C21.962 0 20.8514 0.639343 20.2503 1.67976L16.9464 7.39017C16.3453 8.43059 16.3453 9.70928 16.9464 10.7457L20.2503 16.4561C20.8514 17.4966 21.962 18.1359 23.1641 18.1359H29.776C30.9781 18.1359 32.0887 17.4966 32.6898 16.4561L35.9937 10.7457C36.5948 9.70531 36.5948 8.42662 35.9937 7.39017L32.6898 1.67976C32.0887 0.639343 30.9781 0 29.776 0Z" fill="#510D6D"/>
</svg>
